<svg width="256" height="256" viewBox="0 0 256 256" fill="none" xmlns="http://www.w3.org/2000/svg">
  <!-- Rocket Body -->
  <path d="M128 32C96 80 64 128 64 160C64 192 96 224 128 224C160 224 192 192 192 160C192 128 160 80 128 32Z" fill="#F2F2F7"/>
  
  <!-- Window -->
  <circle cx="128" cy="144" r="24" fill="#0A84FF" opacity="0.8"/>
  <circle cx="128" cy="144" r="20" fill="#32D74B" opacity="0.3"/>
  <path d="M136 136L144 144" stroke="white" stroke-width="2" stroke-linecap="round"/>

  <!-- Fins -->
  <path d="M64 160L32 208L64 192" fill="#5856D6"/>
  <path d="M192 160L224 208L192 192" fill="#5856D6"/>
  
  <!-- Exhaust Flame (Inner) -->
  <path d="M112 224L128 256L144 224" fill="#FF9500"/>
  <!-- Exhaust Flame (Outer) -->
  <path d="M104 224L128 264L152 224" fill="#FF3B30" opacity="0.6"/>
</svg>
