<?xml version="1.0" encoding="UTF-8"?>
<svg version="1.1" xmlns="http://www.w3.org/2000/svg" width="204" height="248">

<path d="M0 0 C-3.81202546 4.5534595 -7.75033209 8.89419447 -11.96054077 13.08079529 C-12.52919755 13.65030649 -13.09785432 14.21981769 -13.68374312 14.8065868 C-15.569841 16.69431803 -17.45946502 18.57847761 -19.34912109 20.46264648 C-20.70980965 21.82305268 -22.07027748 23.18367969 -23.43054199 24.54450989 C-27.10965213 28.22390609 -30.79183002 31.90021814 -34.47457838 35.57597232 C-38.32807814 39.42320672 -42.17873267 43.27328675 -46.0296936 47.12306213 C-53.31609539 54.40635998 -60.6050418 61.68710565 -67.89491236 68.9669314 C-76.19675141 77.25758019 -84.49573984 85.55107996 -92.79449344 93.84481704 C-109.85983203 110.89971247 -126.92873633 127.95103549 -144 145 C-145.09960012 144.06715087 -146.19779758 143.13264824 -147.29542542 142.19747925 C-147.90713876 141.67726133 -148.5188521 141.15704342 -149.14910221 140.62106133 C-152.09133002 138.04418661 -154.8381843 135.2850861 -157.58984375 132.5078125 C-158.17923233 131.91700897 -158.76862091 131.32620544 -159.37586975 130.71749878 C-161.23213727 128.85569596 -163.08487085 126.99042255 -164.9375 125.125 C-166.20614672 123.85132989 -167.4750249 122.57789029 -168.74414062 121.3046875 C-171.83210554 118.20577957 -174.91690929 115.10375699 -178 112 C-176.50757019 108.62285645 -174.5676785 106.16965624 -172.11697388 103.41888428 C-170.89716324 102.04754333 -170.89716324 102.04754333 -169.65270996 100.64849854 C-168.74819259 99.64259364 -167.84327153 98.63705162 -166.93798828 97.63183594 C-166.2392415 96.85190277 -166.2392415 96.85190277 -165.52637863 96.05621338 C-156.2298334 85.68367856 -146.71070276 75.52242516 -137.11461067 65.42712021 C-131.0259498 59.0133663 -125.01555883 52.55303797 -119.16259766 45.92285156 C-82.61178746 4.61803215 -55.48580604 -9.16205962 0 0 Z " fill="#67B6F6" transform="translate(191,13)"/>
<path d="M0 0 C0.77642979 0.04852615 1.55285957 0.09705231 2.35281754 0.14704895 C11.96057363 0.79506414 21.44496883 1.93412619 30.9375 3.5625 C25.31812338 10.42157115 19.03435489 16.59259491 12.7578125 22.83984375 C11.57789553 24.01789258 10.39820142 25.19616466 9.21871948 26.37464905 C6.13360309 29.45597142 3.04549411 32.53427716 -0.04327393 35.61193848 C-3.20255733 38.76094034 -6.35896516 41.91282171 -9.515625 45.06445312 C-15.69512527 51.2332711 -21.8777939 57.39890129 -28.0625 63.5625 C-23.01558654 69.72098166 -17.44228559 75.30040757 -11.79793167 80.90223312 C-10.0727781 82.614507 -8.35087013 84.32998745 -6.62973022 86.04629517 C-2.98513811 89.6795325 0.66340517 93.30878582 4.3125 96.9375 C8.56336094 101.16476818 12.8125916 105.39364912 17.05766678 109.62672806 C18.75748144 111.32004245 20.46026774 113.01033008 22.16317749 114.70053101 C23.1953568 115.72908119 24.22739787 116.75777011 25.25927734 117.78662109 C26.16495453 118.68706146 27.07063171 119.58750183 28.00375366 120.51522827 C29.9375 122.5625 29.9375 122.5625 29.9375 123.5625 C19.87446836 125.39136893 9.8240428 126.5745667 -0.375 127.25 C-1.13214798 127.30050507 -1.88929596 127.35101013 -2.66938782 127.40304565 C-22.73333732 128.58295643 -38.16858907 125.85386581 -53.59177208 112.35404396 C-59.98311841 106.54915524 -65.97893456 100.42453498 -71.8125 94.0625 C-72.45980198 93.35698879 -73.10710396 92.65147758 -73.77402115 91.92458725 C-81.85426198 83.0616435 -89.59548423 73.94658085 -97.0625 64.5625 C-91.68946989 52.41148581 -79.65548283 41.50990195 -70.75 31.8125 C-70.1348415 31.14105579 -69.519683 30.46961159 -68.88588333 29.77782059 C-48.12403087 7.34014211 -30.80211939 -1.92570765 0 0 Z " fill="#68B7F7" transform="translate(161.0625,111.4375)"/>
<path d="M0 0 C3.96959185 1.60077803 6.63866157 4.36312252 9.59472656 7.35180664 C10.14151062 7.89669235 10.68829468 8.44157806 11.25164795 9.00297546 C13.05289293 10.80052341 14.84685016 12.60515619 16.640625 14.41015625 C17.89007712 15.66080053 19.13989918 16.91107532 20.39007568 18.16099548 C23.00567465 20.77815728 25.6178823 23.39864177 28.22753906 26.02172852 C31.58078402 29.39200693 34.94061841 32.75562085 38.30276871 36.11701298 C40.8817347 38.69625015 43.45809202 41.27807943 46.03356171 43.86080742 C47.27218997 45.10262755 48.51143341 46.3438344 49.75128937 47.58442879 C51.4776816 49.31297662 53.20074789 51.04476886 54.92285156 52.77758789 C55.44020874 53.29449188 55.95756592 53.81139587 56.49060059 54.34396362 C60 57.88552279 60 57.88552279 60 59 C49.19375332 59.75328543 38.39059672 60.2698171 27.5625 60.5625 C26.38312111 60.59460068 26.38312111 60.59460068 25.17991638 60.62734985 C-8.87505764 61.44813096 -8.87505764 61.44813096 -19.98875427 51.77381897 C-25.26202406 46.55734231 -29.53359783 40.54300812 -33 34 C-29.03627475 29.24914133 -24.90205218 24.76386888 -20.5078125 20.41015625 C-19.91700897 19.82076767 -19.32620544 19.23137909 -18.71749878 18.62413025 C-16.85569596 16.76786273 -14.99042255 14.91512915 -13.125 13.0625 C-11.85132989 11.79385328 -10.57789029 10.5249751 -9.3046875 9.25585938 C-6.20577957 6.16789446 -3.10375699 3.08309071 0 0 Z " fill="#0C469F" transform="translate(131,176)"/>
<path d="M0 0 C4.75085867 3.96372525 9.23613112 8.09794782 13.58984375 12.4921875 C14.47392662 13.37839279 14.47392662 13.37839279 15.37586975 14.28250122 C17.23213727 16.14430404 19.08487085 18.00957745 20.9375 19.875 C22.20614672 21.14867011 23.4750249 22.42210971 24.74414062 23.6953125 C27.83210554 26.79422043 30.91690929 29.89624301 34 33 C30.03627475 37.75085867 25.90205218 42.23613112 21.5078125 46.58984375 C20.91700897 47.17923233 20.32620544 47.76862091 19.71749878 48.37586975 C17.85569596 50.23213727 15.99042255 52.08487085 14.125 53.9375 C12.85132989 55.20614672 11.57789029 56.4750249 10.3046875 57.74414062 C7.20577957 60.83210554 4.10375699 63.91690929 1 67 C-1.95265112 65.67005617 -4.02350216 64.22220684 -6.29980469 61.92724609 C-6.92014587 61.30675385 -7.54048706 60.6862616 -8.17962646 60.04696655 C-8.83706848 59.37920197 -9.4945105 58.71143738 -10.171875 58.0234375 C-11.1955014 56.99556625 -11.1955014 56.99556625 -12.23980713 55.94692993 C-14.41461598 53.76094155 -16.58236072 51.56809571 -18.75 49.375 C-20.2247999 47.89016745 -21.70005506 46.40578694 -23.17578125 44.921875 C-26.78915448 41.2864709 -30.39620853 37.64490176 -34 34 C-22.66666667 22.66666667 -11.33333333 11.33333333 0 0 Z " fill="#41A4F4" transform="translate(98,142)"/>
<path d="M0 0 C1.32 0.66 2.64 1.32 4 2 C3.34 2.33 2.68 2.66 2 3 C-0.12657281 7.75351568 -1.17235698 12.00417134 -1.5625 17.1875 C-1.68818359 18.81751953 -1.68818359 18.81751953 -1.81640625 20.48046875 C-1.90728516 21.72763672 -1.90728516 21.72763672 -2 23 C-5.947542 24.45213966 -9.89852266 25.89435586 -13.85302734 27.32739258 C-15.1984241 27.81652439 -16.54283455 28.3083779 -17.88623047 28.80297852 C-19.8148664 29.51251727 -21.74681135 30.21226497 -23.6796875 30.91015625 C-25.42354736 31.54642944 -25.42354736 31.54642944 -27.20263672 32.19555664 C-30 33 -30 33 -32 32 C-21.44 21.44 -10.88 10.88 0 0 Z " fill="#163E7B" transform="translate(131,176)"/>
<path d="M0 0 C1.16187647 0.0757576 1.16187647 0.0757576 2.34722519 0.15304565 C11.92155501 0.82432414 21.36241131 1.99936548 30.8125 3.6875 C28.8125 5.6875 28.8125 5.6875 26.06637573 5.89004517 C24.89833405 5.86783905 23.73029236 5.84563293 22.52685547 5.82275391 C21.88282776 5.81329239 21.23880005 5.80383087 20.57525635 5.79408264 C18.4431139 5.76036116 16.31154785 5.71225938 14.1796875 5.6640625 C12.70282505 5.63789981 11.22594648 5.61263244 9.74905396 5.58822632 C5.8591882 5.52153158 1.96966063 5.44264869 -1.91992188 5.36126709 C-5.88788864 5.2803894 -9.85605398 5.21098298 -13.82421875 5.140625 C-21.61221977 5.00084068 -29.39989923 4.84818608 -37.1875 4.6875 C-37.47378265 5.29877243 -37.76006531 5.91004486 -38.05502319 6.5398407 C-39.57434836 9.42112957 -41.60680694 11.34829554 -43.9140625 13.64453125 C-44.3805722 14.11058273 -44.84708191 14.57663422 -45.32772827 15.05680847 C-46.3155674 16.04163345 -47.30582895 17.02403381 -48.29833984 18.00415039 C-49.79183047 19.47958043 -51.2773575 20.9626574 -52.76171875 22.44726562 C-56.75950866 26.42975423 -60.75553294 30.38600052 -65.0546875 34.046875 C-71.26951777 39.37466935 -76.9241547 45.31994835 -82.6875 51.125 C-83.90341114 52.3459369 -85.11955516 53.56664192 -86.3359375 54.78710938 C-89.28914966 57.75124013 -92.23919398 60.71848958 -95.1875 63.6875 C-95.8475 63.3575 -96.5075 63.0275 -97.1875 62.6875 C-89.14265158 52.5389185 -80.74923849 42.73614936 -72 33.1875 C-71.35830746 32.48674221 -70.71661491 31.78598442 -70.05547714 31.06399155 C-48.91818575 8.21623908 -31.49422085 -2.06835568 0 0 Z " fill="#7DC0F7" transform="translate(161.1875,111.3125)"/>
<path d="M0 0 C0.33 0.66 0.66 1.32 1 2 C0.26392017 4.19380655 -0.56300451 6.35760454 -1.4375 8.5 C-3.30125645 12.62748591 -3.30125645 12.62748591 -4 17 C-6.62168311 18.03016022 -9.24673881 19.04938394 -11.875 20.0625 C-12.62136719 20.35705078 -13.36773437 20.65160156 -14.13671875 20.95507812 C-16.06975563 21.69520486 -18.03365032 22.35355735 -20 23 C-20.66 22.67 -21.32 22.34 -22 22 C-14.74 14.74 -7.48 7.48 0 0 Z " fill="#133364" transform="translate(121,186)"/>
<path d="M0 0 C0.99 0.33 1.98 0.66 3 1 C2.01 1.495 2.01 1.495 1 2 C-1.12657281 6.75351568 -2.17235698 11.00417134 -2.5625 16.1875 C-2.64628906 17.27417969 -2.73007813 18.36085937 -2.81640625 19.48046875 C-2.87699219 20.31191406 -2.93757812 21.14335937 -3 22 C-4.32 22.33 -5.64 22.66 -7 23 C-7.93020934 14.09410688 -5.93558458 8.41021286 -1 1 C-0.67 0.67 -0.34 0.34 0 0 Z " fill="#164388" transform="translate(132,177)"/>
<path d="M0 0 C1.24934409 2.49868817 0.95051901 3.29400833 0.1875 5.9375 C-0.93324461 8.87812038 -1.56516442 9.78677677 -4.4296875 11.19140625 C-6.94456143 11.92877014 -9.42155341 12.53558936 -12 13 C-8.19524578 8.43969176 -4.25030379 4.14910608 0 0 Z " fill="#051A3E" transform="translate(111,196)"/>
<path d="M0 0 C0 3.43292562 -0.79431574 4.72232048 -2.4375 7.6875 C-4.82006278 12.27090467 -5.7148298 15.86693641 -6 21 C-6.99 21.33 -7.98 21.66 -9 22 C-10 20 -10 20 -8.92578125 16.4453125 C-8.39626802 15.00215554 -7.85810802 13.56214932 -7.3125 12.125 C-7.05533203 11.40441406 -6.79816406 10.68382812 -6.53320312 9.94140625 C-4.97390504 5.7807239 -3.50242018 2.91486821 0 0 Z " fill="#14376F" transform="translate(126,181)"/>
<path d="M0 0 C1.45606519 4.52092968 0.27032841 7.51648796 -1 12 C-2.32 12.33 -3.64 12.66 -5 13 C-5.33 12.34 -5.66 11.68 -6 11 C-5.29296875 8.90625 -5.29296875 8.90625 -4.1875 6.5 C-3.83042969 5.7059375 -3.47335938 4.911875 -3.10546875 4.09375 C-2 2 -2 2 0 0 Z " fill="#0D2955" transform="translate(115,192)"/>
</svg>
